<svg width="20" height="20" viewBox="0 0 20 20" fill="none" xmlns="http://www.w3.org/2000/svg">
<path fill-rule="evenodd" clip-rule="evenodd" d="M18.75 9.99994C18.75 10.1657 18.6842 10.3247 18.5669 10.4419C18.4497 10.5591 18.2908 10.6249 18.125 10.6249L3.38375 10.6249L7.3175 14.5574C7.43486 14.6748 7.50079 14.834 7.50079 14.9999C7.50079 15.1659 7.43486 15.3251 7.3175 15.4424C7.20014 15.5598 7.04097 15.6257 6.875 15.6257C6.70903 15.6257 6.54986 15.5598 6.4325 15.4424L1.4325 10.4424C1.3743 10.3844 1.32812 10.3154 1.29661 10.2395C1.2651 10.1636 1.24888 10.0822 1.24888 9.99994C1.24888 9.91773 1.2651 9.83633 1.29661 9.7604C1.32812 9.68447 1.3743 9.6155 1.4325 9.55744L6.4325 4.55744C6.54986 4.44008 6.70903 4.37415 6.875 4.37415C7.04097 4.37415 7.20014 4.44008 7.3175 4.55744C7.43486 4.6748 7.50079 4.83397 7.50079 4.99994C7.50079 5.16591 7.43486 5.32508 7.3175 5.44244L3.38375 9.37494L18.125 9.37494C18.2908 9.37494 18.4497 9.44079 18.5669 9.558C18.6842 9.67521 18.75 9.83418 18.75 9.99994Z" fill="black"/>
</svg>
