<svg width="30" height="30" viewBox="0 0 30 30" fill="none" xmlns="http://www.w3.org/2000/svg">
<path fill-rule="evenodd" clip-rule="evenodd" d="M6.5625 11.25C6.31386 11.25 6.0754 11.3488 5.89959 11.5246C5.72377 11.7004 5.625 11.9389 5.625 12.1875V27.1875C5.625 27.4361 5.72377 27.6746 5.89959 27.8504C6.0754 28.0262 6.31386 28.125 6.5625 28.125H23.4375C23.6861 28.125 23.9246 28.0262 24.1004 27.8504C24.2762 27.6746 24.375 27.4361 24.375 27.1875V12.1875C24.375 11.9389 24.2762 11.7004 24.1004 11.5246C23.9246 11.3488 23.6861 11.25 23.4375 11.25H19.6875C19.4389 11.25 19.2004 11.1512 19.0246 10.9754C18.8488 10.7996 18.75 10.5611 18.75 10.3125C18.75 10.0639 18.8488 9.8254 19.0246 9.64959C19.2004 9.47377 19.4389 9.375 19.6875 9.375H23.4375C24.1834 9.375 24.8988 9.67132 25.4262 10.1988C25.9537 10.7262 26.25 11.4416 26.25 12.1875V27.1875C26.25 27.9334 25.9537 28.6488 25.4262 29.1762C24.8988 29.7037 24.1834 30 23.4375 30H6.5625C5.81658 30 5.10121 29.7037 4.57376 29.1762C4.04632 28.6488 3.75 27.9334 3.75 27.1875V12.1875C3.75 11.4416 4.04632 10.7262 4.57376 10.1988C5.10121 9.67132 5.81658 9.375 6.5625 9.375H10.3125C10.5611 9.375 10.7996 9.47377 10.9754 9.64959C11.1512 9.8254 11.25 10.0639 11.25 10.3125C11.25 10.5611 11.1512 10.7996 10.9754 10.9754C10.7996 11.1512 10.5611 11.25 10.3125 11.25H6.5625Z" fill="black"/>
<path fill-rule="evenodd" clip-rule="evenodd" d="M14.3362 22.2262C14.4233 22.3136 14.5268 22.3828 14.6407 22.4301C14.7545 22.4773 14.8767 22.5017 15 22.5017C15.1233 22.5017 15.2454 22.4773 15.3593 22.4301C15.4732 22.3828 15.5766 22.3136 15.6637 22.2262L21.2887 16.6012C21.4648 16.4252 21.5636 16.1865 21.5636 15.9375C21.5636 15.6885 21.4648 15.4498 21.2887 15.2737C21.1127 15.0977 20.8739 14.9988 20.625 14.9988C20.376 14.9988 20.1373 15.0977 19.9612 15.2737L15.9375 19.2994V2.8125C15.9375 2.56386 15.8387 2.3254 15.6629 2.14959C15.4871 1.97377 15.2486 1.875 15 1.875C14.7513 1.875 14.5129 1.97377 14.3371 2.14959C14.1612 2.3254 14.0625 2.56386 14.0625 2.8125V19.2994L10.0387 15.2737C9.86268 15.0977 9.62392 14.9988 9.37496 14.9988C9.12601 14.9988 8.88725 15.0977 8.71121 15.2737C8.53518 15.4498 8.43628 15.6885 8.43628 15.9375C8.43628 16.1865 8.53518 16.4252 8.71121 16.6012L14.3362 22.2262Z" fill="black"/>
</svg>
