<svg width="800" height="100" viewBox="0 0 800 100" fill="none" xmlns="http://www.w3.org/2000/svg">
<rect x="0.5" y="0.5" width="799" height="99" rx="9.5" stroke="black"/>
<path d="M400 40C400.332 40 400.649 40.1317 400.884 40.3661C401.118 40.6005 401.25 40.9185 401.25 41.25V48.75H408.75C409.082 48.75 409.399 48.8817 409.634 49.1161C409.868 49.3505 410 49.6685 410 50C410 50.3315 409.868 50.6495 409.634 50.8839C409.399 51.1183 409.082 51.25 408.75 51.25H401.25V58.75C401.25 59.0815 401.118 59.3995 400.884 59.6339C400.649 59.8683 400.332 60 400 60C399.668 60 399.351 59.8683 399.116 59.6339C398.882 59.3995 398.75 59.0815 398.75 58.75V51.25H391.25C390.918 51.25 390.601 51.1183 390.366 50.8839C390.132 50.6495 390 50.3315 390 50C390 49.6685 390.132 49.3505 390.366 49.1161C390.601 48.8817 390.918 48.75 391.25 48.75H398.75V41.25C398.75 40.9185 398.882 40.6005 399.116 40.3661C399.351 40.1317 399.668 40 400 40Z" fill="black"/>
</svg>
