<svg width="20" height="20" viewBox="0 0 20 20" fill="none" xmlns="http://www.w3.org/2000/svg">
<g clip-path="url(#clip0_216_1174)">
<path fill-rule="evenodd" clip-rule="evenodd" d="M17.5 5.625V17.5C17.5 18.163 17.2366 18.7989 16.7678 19.2678C16.2989 19.7366 15.663 20 15 20H13.75V18.75H15C15.3315 18.75 15.6495 18.6183 15.8839 18.3839C16.1183 18.1495 16.25 17.8315 16.25 17.5V5.625H13.75C13.2527 5.625 12.7758 5.42746 12.4242 5.07583C12.0725 4.72419 11.875 4.24728 11.875 3.75V1.25H5C4.66848 1.25 4.35054 1.3817 4.11612 1.61612C3.8817 1.85054 3.75 2.16848 3.75 2.5V13.75H2.5V2.5C2.5 1.83696 2.76339 1.20107 3.23223 0.732233C3.70107 0.263392 4.33696 0 5 0L11.875 0L17.5 5.625ZM12.075 15.79C12.17 15.9812 12.2288 16.1862 12.25 16.405H11.28C11.2574 16.2952 11.2164 16.1899 11.1588 16.0938C11.1033 16.0021 11.0312 15.9215 10.9462 15.8563C10.8585 15.7853 10.7579 15.7319 10.65 15.6987C10.5291 15.6608 10.403 15.6422 10.2762 15.6438C9.92 15.6438 9.6425 15.7688 9.445 16.0212C9.25 16.2725 9.1525 16.6262 9.1525 17.0837V17.7062C9.1525 17.9988 9.1925 18.255 9.27375 18.475C9.34642 18.681 9.47869 18.8607 9.65375 18.9912C9.84522 19.1192 10.0724 19.1831 10.3025 19.1737C10.4999 19.181 10.696 19.1398 10.8738 19.0537C11.0165 18.9788 11.1345 18.8642 11.2137 18.7238C11.2887 18.5863 11.3275 18.4363 11.3275 18.27V17.9513H10.3V17.2137H12.27V18.2113C12.27 18.4525 12.23 18.6825 12.1488 18.8988C12.0687 19.1134 11.9439 19.3086 11.7825 19.4712C11.6069 19.6447 11.3958 19.7782 11.1637 19.8625C10.9175 19.955 10.6263 20.0012 10.2925 20.0012C9.97101 20.0079 9.6513 19.9519 9.35125 19.8363C9.09617 19.732 8.86828 19.5708 8.685 19.365C8.50194 19.1543 8.36561 18.9072 8.285 18.64C8.19418 18.3381 8.14992 18.024 8.15375 17.7087V17.0763C8.15375 16.6238 8.23625 16.2288 8.40375 15.8888C8.57125 15.55 8.81375 15.2863 9.13125 15.0975C9.45125 14.9075 9.8375 14.8125 10.2887 14.8125C10.5863 14.8125 10.8512 14.8538 11.0837 14.9375C11.3175 15.02 11.5175 15.135 11.6838 15.2812C11.85 15.4275 11.9813 15.5975 12.0763 15.79H12.075ZM0 18.4825C0 18.6875 0.03375 18.8813 0.1025 19.0638C0.17125 19.2475 0.2725 19.41 0.40625 19.5513C0.54375 19.6925 0.7125 19.8037 0.915 19.885C1.12 19.9625 1.3575 20.0012 1.62625 20.0012C2.15125 20.0012 2.56125 19.8575 2.85625 19.57C3.15375 19.2825 3.30375 18.8625 3.30375 18.3137V14.9075H2.315V18.3387C2.315 18.5912 2.2575 18.785 2.1425 18.9212C2.0275 19.0588 1.85125 19.1262 1.615 19.1262C1.50136 19.1316 1.38841 19.1058 1.28838 19.0516C1.18835 18.9974 1.10506 18.9169 1.0475 18.8188C0.989864 18.7154 0.958527 18.5995 0.95625 18.4813H0V18.4825ZM6.15 14.9075H4.1525V19.9075H5.14125V18.2288H6.145C6.50375 18.2288 6.80875 18.1575 7.06 18.0138C7.31375 17.8663 7.5075 17.6688 7.63875 17.42C7.77375 17.1688 7.84 16.8862 7.84 16.5737C7.84 16.2612 7.775 15.98 7.6425 15.7275C7.51195 15.4777 7.31236 15.2708 7.0675 15.1312C6.8175 14.9812 6.51375 14.9075 6.1525 14.9075H6.15ZM6.8325 16.5737C6.83721 16.7389 6.8007 16.9025 6.72625 17.05C6.65944 17.1776 6.55578 17.2821 6.42875 17.35C6.28324 17.422 6.12228 17.4572 5.96 17.4525H5.1375V15.695H5.9625C6.235 15.695 6.44875 15.77 6.6025 15.9225C6.75625 16.0725 6.8325 16.2913 6.8325 16.5737Z" fill="black"/>
</g>
<defs>
<clipPath id="clip0_216_1174">
<rect width="20" height="20" fill="white"/>
</clipPath>
</defs>
</svg>
