<svg width="20" height="20" viewBox="0 0 20 20" fill="none" xmlns="http://www.w3.org/2000/svg">
<g clip-path="url(#clip0_216_949)">
<path d="M0 1.25C0 0.918479 0.131696 0.600537 0.366117 0.366117C0.600537 0.131696 0.918479 0 1.25 0L18.75 0C19.0815 0 19.3995 0.131696 19.6339 0.366117C19.8683 0.600537 20 0.918479 20 1.25V18.75C20 19.0815 19.8683 19.3995 19.6339 19.6339C19.3995 19.8683 19.0815 20 18.75 20H1.25C0.918479 20 0.600537 19.8683 0.366117 19.6339C0.131696 19.3995 0 19.0815 0 18.75V1.25ZM5 1.25V8.75H15V1.25H5ZM15 11.25H5V18.75H15V11.25ZM1.25 1.25V3.75H3.75V1.25H1.25ZM3.75 5H1.25V7.5H3.75V5ZM1.25 8.75V11.25H3.75V8.75H1.25ZM3.75 12.5H1.25V15H3.75V12.5ZM1.25 16.25V18.75H3.75V16.25H1.25ZM18.75 1.25H16.25V3.75H18.75V1.25ZM16.25 5V7.5H18.75V5H16.25ZM18.75 8.75H16.25V11.25H18.75V8.75ZM16.25 12.5V15H18.75V12.5H16.25ZM18.75 16.25H16.25V18.75H18.75V16.25Z" fill="black"/>
</g>
<defs>
<clipPath id="clip0_216_949">
<rect width="20" height="20" fill="white"/>
</clipPath>
</defs>
</svg>
