<svg width="30" height="30" viewBox="0 0 30 30" fill="none" xmlns="http://www.w3.org/2000/svg">
<path d="M16.7475 1.36309C16.2918 -0.455664 13.71 -0.455664 13.2525 1.36309L13.1193 1.89934C13.0414 2.21097 12.8816 2.49609 12.6563 2.7251C12.4311 2.95411 12.1486 3.11867 11.8383 3.2017C11.528 3.28473 11.2011 3.2832 10.8916 3.19728C10.5821 3.11137 10.3012 2.94418 10.0781 2.71309L9.69371 2.31746C8.39059 0.969336 6.15371 2.26121 6.66934 4.06309L6.81934 4.59559C6.90748 4.90411 6.91155 5.23059 6.83112 5.54121C6.75069 5.85183 6.5887 6.13531 6.36191 6.36229C6.13512 6.58928 5.85177 6.75151 5.54122 6.8322C5.23066 6.91288 4.90418 6.90909 4.59559 6.82121L4.06309 6.66934C2.26309 6.15371 0.969336 8.39059 2.31746 9.69371L2.71309 10.0781C2.94418 10.3012 3.11137 10.5821 3.19728 10.8916C3.2832 11.2011 3.28473 11.528 3.2017 11.8383C3.11867 12.1486 2.95411 12.4311 2.7251 12.6563C2.49609 12.8816 2.21097 13.0414 1.89934 13.1193L1.36309 13.2525C-0.455664 13.7081 -0.455664 16.29 1.36309 16.7475L1.89934 16.8806C2.21097 16.9585 2.49609 17.1183 2.7251 17.3436C2.95411 17.5689 3.11867 17.8513 3.2017 18.1616C3.28473 18.4719 3.2832 18.7988 3.19728 19.1083C3.11137 19.4178 2.94418 19.6987 2.71309 19.9218L2.31746 20.3062C0.969336 21.6093 2.26121 23.8462 4.06309 23.3306L4.59559 23.1806C4.9043 23.0923 5.23102 23.0882 5.54187 23.1687C5.85271 23.2492 6.13636 23.4113 6.36341 23.6384C6.59046 23.8654 6.75265 24.1491 6.83314 24.4599C6.91364 24.7708 6.90952 25.0975 6.82121 25.4062L6.66934 25.9368C6.15371 27.7368 8.39059 29.0306 9.69371 27.6825L10.0781 27.2868C10.3012 27.0557 10.5821 26.8886 10.8916 26.8026C11.2011 26.7167 11.528 26.7152 11.8383 26.7982C12.1486 26.8813 12.4311 27.0458 12.6563 27.2748C12.8816 27.5038 13.0414 27.7889 13.1193 28.1006L13.2525 28.6368C13.7081 30.4556 16.29 30.4556 16.7475 28.6368L16.8806 28.1006C16.9585 27.7889 17.1183 27.5038 17.3436 27.2748C17.5689 27.0458 17.8513 26.8813 18.1616 26.7982C18.4719 26.7152 18.7988 26.7167 19.1083 26.8026C19.4178 26.8886 19.6987 27.0557 19.9218 27.2868L20.3062 27.6825C21.6093 29.0306 23.8462 27.7387 23.3306 25.9368L23.1806 25.4043C23.0923 25.0956 23.0882 24.7689 23.1687 24.4581C23.2492 24.1472 23.4113 23.8636 23.6384 23.6365C23.8654 23.4095 24.1491 23.2473 24.4599 23.1668C24.7708 23.0863 25.0975 23.0904 25.4062 23.1787L25.9368 23.3306C27.7368 23.8462 29.0306 21.6093 27.6825 20.3062L27.2868 19.9218C27.0557 19.6987 26.8886 19.4178 26.8026 19.1083C26.7167 18.7988 26.7152 18.4719 26.7982 18.1616C26.8813 17.8513 27.0458 17.5689 27.2748 17.3436C27.5038 17.1183 27.7889 16.9585 28.1006 16.8806L28.6368 16.7475C30.4556 16.2918 30.4556 13.71 28.6368 13.2525L28.1006 13.1193C27.7889 13.0414 27.5038 12.8816 27.2748 12.6563C27.0458 12.4311 26.8813 12.1486 26.7982 11.8383C26.7152 11.528 26.7167 11.2011 26.8026 10.8916C26.8886 10.5821 27.0557 10.3012 27.2868 10.0781L27.6825 9.69371C29.0306 8.39059 27.7387 6.15371 25.9368 6.66934L25.4043 6.81934C25.0958 6.90748 24.7693 6.91155 24.4587 6.83112C24.1481 6.75069 23.8646 6.5887 23.6376 6.36191C23.4106 6.13512 23.2484 5.85177 23.1677 5.54122C23.087 5.23066 23.0908 4.90418 23.1787 4.59559L23.3306 4.06309C23.8462 2.26309 21.6093 0.969336 20.3062 2.31746L19.9218 2.71309C19.6987 2.94418 19.4178 3.11137 19.1083 3.19728C18.7988 3.2832 18.4719 3.28473 18.1616 3.2017C17.8513 3.11867 17.5689 2.95411 17.3436 2.7251C17.1183 2.49609 16.9585 2.21097 16.8806 1.89934L16.7475 1.36309ZM15 24.3693C13.7583 24.3869 12.5255 24.1575 11.3732 23.6945C10.221 23.2315 9.17224 22.5441 8.28797 21.6722C7.40369 20.8003 6.70151 19.7614 6.22224 18.6158C5.74297 17.4702 5.49616 16.2408 5.49616 14.999C5.49616 13.7572 5.74297 12.5278 6.22224 11.3822C6.70151 10.2366 7.40369 9.19771 8.28797 8.32585C9.17224 7.45399 10.221 6.76658 11.3732 6.30356C12.5255 5.84054 13.7583 5.61115 15 5.62871C17.4854 5.62871 19.869 6.61604 21.6264 8.37349C23.3839 10.1309 24.3712 12.5146 24.3712 15C24.3712 17.4854 23.3839 19.869 21.6264 21.6264C19.869 23.3839 17.4854 24.3712 15 24.3712V24.3693Z" fill="black"/>
</svg>
