<svg width="30" height="30" viewBox="0 0 30 30" fill="none" xmlns="http://www.w3.org/2000/svg">
<path d="M16.7475 1.36309C16.2919 -0.455664 13.71 -0.455664 13.2525 1.36309L13.1194 1.89934C13.0415 2.21097 12.8816 2.49609 12.6564 2.7251C12.4311 2.95411 12.1487 3.11867 11.8384 3.2017C11.5281 3.28473 11.2012 3.2832 10.8917 3.19728C10.5821 3.11137 10.3012 2.94418 10.0781 2.71309L9.69376 2.31746C8.39063 0.969336 6.15376 2.26121 6.66938 4.06309L6.81938 4.59559C6.90752 4.90411 6.91159 5.23059 6.83117 5.54121C6.75074 5.85183 6.58875 6.13531 6.36195 6.36229C6.13516 6.58928 5.85182 6.75151 5.54126 6.8322C5.23071 6.91288 4.90423 6.90909 4.59563 6.82121L4.06313 6.66934C2.26313 6.15371 0.969382 8.39059 2.31751 9.69371L2.71313 10.0781C2.94423 10.3012 3.11141 10.5821 3.19733 10.8916C3.28325 11.2011 3.28477 11.528 3.20174 11.8383C3.11871 12.1486 2.95415 12.4311 2.72515 12.6563C2.49614 12.8816 2.21102 13.0414 1.89938 13.1193L1.36313 13.2525C-0.455618 13.7081 -0.455618 16.29 1.36313 16.7475L1.89938 16.8806C2.21102 16.9585 2.49614 17.1183 2.72515 17.3436C2.95415 17.5689 3.11871 17.8513 3.20174 18.1616C3.28477 18.4719 3.28325 18.7988 3.19733 19.1083C3.11141 19.4178 2.94423 19.6987 2.71313 19.9218L2.31751 20.3062C0.969382 21.6093 2.26126 23.8462 4.06313 23.3306L4.59563 23.1806C4.90435 23.0923 5.23107 23.0882 5.54191 23.1687C5.85276 23.2492 6.13641 23.4113 6.36346 23.6384C6.59051 23.8654 6.75269 24.1491 6.83319 24.4599C6.91368 24.7708 6.90956 25.0975 6.82126 25.4062L6.66938 25.9368C6.15376 27.7368 8.39063 29.0306 9.69376 27.6825L10.0781 27.2868C10.3012 27.0557 10.5821 26.8886 10.8917 26.8026C11.2012 26.7167 11.5281 26.7152 11.8384 26.7982C12.1487 26.8813 12.4311 27.0458 12.6564 27.2748C12.8816 27.5038 13.0415 27.7889 13.1194 28.1006L13.2525 28.6368C13.7081 30.4556 16.29 30.4556 16.7475 28.6368L16.8806 28.1006C16.9585 27.7889 17.1184 27.5038 17.3436 27.2748C17.5689 27.0458 17.8513 26.8813 18.1617 26.7982C18.472 26.7152 18.7988 26.7167 19.1084 26.8026C19.4179 26.8886 19.6988 27.0557 19.9219 27.2868L20.3063 27.6825C21.6094 29.0306 23.8463 27.7387 23.3306 25.9368L23.1806 25.4043C23.0923 25.0956 23.0882 24.7689 23.1687 24.4581C23.2492 24.1472 23.4114 23.8636 23.6384 23.6365C23.8655 23.4095 24.1491 23.2473 24.46 23.1668C24.7708 23.0863 25.0975 23.0904 25.4063 23.1787L25.9369 23.3306C27.7369 23.8462 29.0306 21.6093 27.6825 20.3062L27.2869 19.9218C27.0558 19.6987 26.8886 19.4178 26.8027 19.1083C26.7168 18.7988 26.7152 18.4719 26.7983 18.1616C26.8813 17.8513 27.0459 17.5689 27.2749 17.3436C27.5039 17.1183 27.789 16.9585 28.1006 16.8806L28.6369 16.7475C30.4556 16.2918 30.4556 13.71 28.6369 13.2525L28.1006 13.1193C27.789 13.0414 27.5039 12.8816 27.2749 12.6563C27.0459 12.4311 26.8813 12.1486 26.7983 11.8383C26.7152 11.528 26.7168 11.2011 26.8027 10.8916C26.8886 10.5821 27.0558 10.3012 27.2869 10.0781L27.6825 9.69371C29.0306 8.39059 27.7388 6.15371 25.9369 6.66934L25.4044 6.81934C25.0959 6.90748 24.7694 6.91155 24.4588 6.83112C24.1481 6.75069 23.8647 6.5887 23.6377 6.36191C23.4107 6.13512 23.2485 5.85177 23.1678 5.54122C23.0871 5.23066 23.0909 4.90418 23.1788 4.59559L23.3306 4.06309C23.8463 2.26309 21.6094 0.969336 20.3063 2.31746L19.9219 2.71309C19.6988 2.94418 19.4179 3.11137 19.1084 3.19728C18.7988 3.2832 18.472 3.28473 18.1617 3.2017C17.8513 3.11867 17.5689 2.95411 17.3436 2.7251C17.1184 2.49609 16.9585 2.21097 16.8806 1.89934L16.7475 1.36309ZM15 24.3693C13.7583 24.3869 12.5255 24.1575 11.3733 23.6945C10.221 23.2315 9.17229 22.5441 8.28801 21.6722C7.40373 20.8003 6.70156 19.7614 6.22228 18.6158C5.74301 17.4702 5.4962 16.2408 5.4962 14.999C5.4962 13.7572 5.74301 12.5278 6.22228 11.3822C6.70156 10.2366 7.40373 9.19771 8.28801 8.32585C9.17229 7.45399 10.221 6.76658 11.3733 6.30356C12.5255 5.84054 13.7583 5.61115 15 5.62871C17.4854 5.62871 19.869 6.61604 21.6265 8.37349C23.3839 10.1309 24.3713 12.5146 24.3713 15C24.3713 17.4854 23.3839 19.869 21.6265 21.6264C19.869 23.3839 17.4854 24.3712 15 24.3712V24.3693Z" fill="black"/>
</svg>
