<svg width="92" height="20" viewBox="0 0 92 20" fill="none" xmlns="http://www.w3.org/2000/svg">
<rect x="0.5" y="0.5" width="91" height="19" rx="2.5" stroke="black"/>
<path d="M81.0588 13.925L75.0638 7.0725C74.3563 6.26625 74.9313 5 76.005 5H87.995C88.2353 4.99979 88.4706 5.06886 88.6727 5.19893C88.8747 5.32899 89.035 5.51455 89.1343 5.73337C89.2336 5.95219 89.2678 6.195 89.2327 6.43272C89.1975 6.67045 89.0946 6.89301 88.9363 7.07375L82.9413 13.9238C82.8239 14.058 82.6792 14.1656 82.5169 14.2394C82.3546 14.3131 82.1783 14.3512 82 14.3512C81.8217 14.3512 81.6455 14.3131 81.4831 14.2394C81.3208 14.1656 81.1761 14.058 81.0588 13.9238V13.925Z" fill="black"/>
</svg>
